<?xml version="1.0" encoding="utf-8"?>
<svg version="1.0" xmlns="http://www.w3.org/2000/svg" width="447px" height="188px" viewBox="0 0 447 188" preserveAspectRatio="xMidYMid meet">
 <defs>
  <mask id="misu-mask">
   <rect width="100%" height="100%" fill="white" />
   <!-- We only subtract Path 6 (the droplet/hole) to create the transparency in the 's' -->
   <path d="M260.52 160.19 c-7.79 -1.23 -14.39 -8.07 -14.39 -14.97 0 -1.59 0.03 -1.62 0.78 -1.62 0.42 0 1.51 0.39 2.40 0.84 1.84 0.92 2.54 1.01 3.91 0.45 2.04 -0.84 3.69 -3.18 4.36 -6.15 0.59 -2.60 -1.09 -6.70 -3.55 -8.77 -0.81 -0.67 -1.20 -1.23 -1.20 -1.70 0 -0.36 1.31 -4.69 2.91 -9.64 3.16 -9.72 5.50 -17.46 6.84 -22.52 0.73 -2.79 2.82 -11.96 2.82 -12.40 0 -0.08 0.56 -0.17 1.23 -0.17 l1.23 0 0.34 1.34 c0.92 3.66 5.81 24.19 7.12 29.95 3.21 14.16 3.77 17.82 3.97 25.98 0.11 5.28 0.06 6.96 -0.31 8.60 -1.15 5.50 -4.33 8.83 -9.81 10.25 -1.68 0.45 -7.07 0.78 -8.66 0.53z" fill="black" />
  </mask>
 </defs>
 <g fill="#ffffff" mask="url(#misu-mask)">
  <!-- Main white letter paths -->
  <path d="M214.70 175.25 c-2.10 -0.31 -4.39 -1.06 -6.70 -2.26 -1.98 -1.03 -3.05 -1.84 -5.03 -3.83 -3.88 -3.88 -6.23 -8.58 -7.46 -15 -0.61 -3.13 -0.61 -3.44 -0.70 -46.10 l-0.11 -42.97 9.86 0 c5.42 0 10.14 0.08 10.48 0.17 l0.61 0.17 0.08 40.84 0.08 40.82 0.61 2.18 c0.89 3.13 2.15 5.56 3.66 7.12 4.44 4.55 11.09 2.68 15.23 -4.27 l1.17 -1.96 -0.08 -4.75 c-0.08 -3.55 0 -5.28 0.34 -6.84 0.81 -3.83 3.32 -8.07 5.73 -9.67 1.03 -0.67 1.20 -0.98 2.93 -5.78 8.27 -23.02 12.80 -38.47 15.67 -53.53 0.70 -3.60 1.29 -6.57 1.31 -6.62 0.06 -0.03 1.65 -0.36 3.58 -0.78 1.93 -0.39 6.57 -1.34 10.34 -2.12 3.74 -0.75 6.90 -1.31 7.01 -1.17 0.08 0.11 1.31 4.78 2.71 10.39 1.42 5.62 4.02 15.92 5.78 22.91 6.57 25.84 8.72 36.93 9.44 48.44 l0.34 5.28 5.03 -4 c2.77 -2.21 5.53 -4.44 6.15 -5 l1.12 -0.98 0.14 -35.37 0.14 -35.34 10.06 -0.08 c5.53 -0.03 10.34 0 10.70 0.08 l0.61 0.14 0 35.42 c0.03 36.07 0.20 44.62 0.98 47.80 1.70 6.98 7.40 11.31 13.61 10.34 6.62 -1.03 12.04 -6.70 14.70 -15.34 0.42 -1.40 0.47 -4.97 0.61 -39.95 l0.14 -38.41 10.62 0 10.62 0 0.17 40.51 c0.17 43.67 0.11 42.10 1.62 46.38 2.32 6.57 8.21 8.74 13.63 5 3.74 -2.57 7.35 -9.86 9.33 -18.75 l0.64 -2.88 3.74 0 3.74 0 -0.20 1.48 c-0.39 2.96 -1.29 7.12 -2.23 10.45 -3.10 10.87 -7.68 18.91 -13.47 23.55 -3.91 3.16 -7.85 4.47 -13.27 4.47 -5 0 -8.80 -1.26 -12.29 -4.02 -3.41 -2.71 -6.62 -7.99 -7.85 -12.96 -0.36 -1.40 -0.75 -2.65 -0.84 -2.74 -0.08 -0.11 -0.75 1.03 -1.45 2.51 -1.79 3.74 -4.16 7.18 -6.73 9.75 -3.32 3.30 -7.01 5.53 -11.23 6.68 -1.84 0.53 -2.88 0.61 -7.32 0.61 -4.44 0 -5.48 -0.11 -7.38 -0.61 -8.02 -2.21 -13.69 -6.87 -17.27 -14.16 -1.42 -2.96 -2.85 -7.93 -3.18 -11.15 -0.11 -0.98 -0.28 -1.96 -0.39 -2.15 -0.25 -0.36 -1.56 0.64 -10.34 7.85 -2.54 2.10 -5.03 4.11 -5.53 4.50 -0.53 0.36 -1.48 1.42 -2.15 2.35 -1.37 1.90 -4.55 5.06 -6.84 6.76 -3.35 2.51 -8.33 4.72 -13.13 5.87 -3.63 0.84 -10.56 1.17 -14.33 0.67 -8.35 -1.12 -16.23 -5.70 -21.18 -12.29 l-0.70 -0.95 -1.56 2.35 c-2.91 4.36 -7.49 8.27 -11.57 9.83 -2.88 1.12 -8.80 1.62 -12.54 1.12z m53.64 -16.43 c4.02 -1.03 7.24 -3.49 8.69 -6.68 1.31 -2.88 1.56 -5.03 1.42 -11.34 -0.22 -8.83 -1.20 -13.91 -8.13 -42.74 -3.46 -14.47 -3.24 -13.69 -3.69 -13.69 -0.22 0 -0.39 0.08 -0.39 0.17 0 0.45 -2.10 9.61 -2.82 12.40 -1.26 4.75 -4.39 15.06 -7.18 23.66 l-2.49 7.57 1.15 0.98 c2.40 2.01 4.02 6.06 3.69 9.16 -0.34 3.38 -2.21 6.43 -4.50 7.40 -1.59 0.67 -3.74 0.50 -5.56 -0.39 l-1.56 -0.81 0 0.75 c0 1.23 0.81 3.66 1.87 5.56 2.40 4.33 7.40 7.71 12.52 8.52 1.40 0.20 5.20 -0.08 6.98 -0.53z" />
  <path d="M49.45 174.13 c0 -0.08 0.45 -2.85 0.98 -6.15 1.26 -7.63 8.13 -51.94 12.54 -81.10 1.17 -7.60 3.07 -19.92 4.22 -27.38 4.30 -27.71 5.78 -37.49 5.67 -37.58 -0.17 -0.20 -4.47 1.15 -6.68 2.07 -8.35 3.49 -15.23 10.92 -18.38 19.98 -1.96 5.56 -2.88 11.96 -2.91 20.14 -0.03 3.18 0.14 6.73 0.34 8.24 0.78 5.59 2.63 10.98 5.03 14.50 l1.23 1.79 -2.15 -0.20 c-4 -0.36 -8.63 -1.90 -12.40 -4.13 -2.43 -1.42 -5.89 -5.03 -7.10 -7.35 -3.74 -7.24 -3.49 -18.77 0.61 -29.31 3.94 -10.06 12.94 -20.65 23.36 -27.55 11.48 -7.57 25.06 -10.81 34.75 -8.27 2.01 0.53 4.53 1.48 5.08 1.93 0.47 0.36 1.48 5.76 6.79 36.51 1.48 8.52 3.55 20.53 4.61 26.68 1.06 6.15 2.65 15.25 3.52 20.25 0.84 5 2.54 14.81 3.74 21.79 2.99 17.27 3.69 20.90 3.97 20.23 0.11 -0.28 3.55 -17.32 7.65 -37.83 15.59 -78.11 17.38 -86.94 17.60 -87.17 0.39 -0.36 10.50 -0.84 17.52 -0.84 l6.29 0 0.20 2.29 c2.29 29.81 4.41 57.69 5.87 77.05 0.53 7.29 1.48 19.56 2.10 27.24 0.61 7.68 1.68 21.46 2.37 30.59 0.70 9.14 1.37 17.88 1.54 19.42 0.14 1.54 0.28 3.13 0.28 3.58 l0 0.75 -12.12 0 -12.12 0 -0.17 -1.59 c-0.08 -0.89 -0.28 -3.32 -0.45 -5.39 -0.14 -2.07 -0.64 -8.55 -1.12 -14.39 -0.75 -9.44 -1.23 -15.98 -3.35 -44.70 -0.31 -4.13 -1.01 -13.02 -1.51 -19.70 -0.53 -6.68 -1.17 -14.92 -1.42 -18.30 -0.22 -3.38 -0.50 -6.57 -0.59 -7.07 -0.17 -1.06 -0.75 -1.09 -0.89 -0.03 -0.11 0.81 -21.09 105.66 -21.79 108.79 l-0.47 2.23 -11.34 0.08 -11.34 0.06 -0.31 -1.59 c-0.36 -1.79 -2.21 -12.46 -5.50 -31.65 -1.17 -6.84 -3.24 -18.97 -4.61 -26.96 -3.24 -18.77 -6.76 -39.53 -7.71 -45.45 -0.42 -2.60 -0.87 -4.69 -0.98 -4.69 -0.34 0 -0.42 0.39 -1.93 10.20 -1.54 9.95 -3.91 25.03 -7.01 44.28 -2.40 15 -5.45 34.31 -7.35 46.52 l-1.42 9.22 -6.37 0.08 c-3.49 0.03 -6.34 -0.03 -6.34 -0.14z" />
  <path d="M346.51 47.07 c-5.14 -1.12 -9.61 -5.62 -10.67 -10.70 -1.20 -5.84 1.12 -11.48 6.15 -14.83 4.13 -2.77 9.64 -3.02 14.05 -0.64 1.96 1.03 4.94 4.05 5.84 5.92 0.84 1.70 1.59 4.83 1.59 6.57 0 1.73 -0.75 4.86 -1.56 6.51 -1.01 2.07 -3.66 4.81 -5.67 5.89 -2.96 1.56 -6.34 2.01 -9.72 1.29z" />
 </g>
</svg>